<?xml version="1.0" encoding="UTF-8"?>
<svg width="40px" height="40px" viewBox="0 0 40 40" version="1.1" xmlns="http://www.w3.org/2000/svg" xmlns:xlink="http://www.w3.org/1999/xlink">
    <!-- Generator: Sketch 47.1 (45422) - http://www.bohemiancoding.com/sketch -->
    <title>赔偿</title>
    <desc>Created with Sketch.</desc>
    <defs></defs>
    <g id="Page-1" stroke="none" stroke-width="1" fill="none" fill-rule="evenodd">
        <g id="服务图标-copy" transform="translate(-741.000000, -158.000000)">
            <g id="Group-Copy" transform="translate(-225.000000, 128.000000)">
                <g id="优势" transform="translate(364.000000, 30.000000)"></g>
                <g id="Group-5" transform="translate(597.000000, 32.000000)" opacity="0.7">
                    <g id="故障赔偿-" transform="translate(372.000000, 1.000000)">
                        <g id="Group-3" transform="translate(0.000000, 18.000000)" stroke="#FFFFFF">
                            <path d="M0.361856992,3.48464397 C0.789408302,5.51158345 1.58238708,7.40381185 2.66864688,9.08918274" id="Path"></path>
                            <path d="M5.21403027,12.1657862 C8.22827621,15.0372466 12.3082815,16.8 16.8,16.8 C25.134535,16.8 32.0515396,10.7308306 33.3725654,2.77094026 C33.5221656,1.86951833 33.6,0.943848757 33.6,0" id="Path"></path>
                        </g>
                        <g id="Group-3" transform="translate(17.000000, 9.000000) rotate(-180.000000) translate(-17.000000, -9.000000) " stroke="#FFFFFF" stroke-linecap="square">
                            <path d="M5.21403027,12.1657862 C8.22827621,15.0372466 12.1082815,17.3 16.6,17.3 C24.934535,17.3 32.0515396,10.7308306 33.3725654,2.77094026 C33.5221656,1.86951833 33.6,0.943848757 33.6,0" id="Path"></path>
                            <path d="M0.361856992,3.48464397 C0.789408302,5.51158345 1.58238708,7.40381185 2.66864688,9.08918274" id="Path"></path>
                        </g>
                        <path d="M15.445,11.795 L15.445,21.05 L14.725,21.05 L14.725,12.545 L11.59,12.545 L11.59,21.275 L10.855,21.275 L10.855,11.795 L15.445,11.795 Z M12.835,13.85 L13.495,13.85 L13.495,18.695 C13.465,20.345 13.225,21.65 12.745,22.64 C12.265,23.54 11.5,24.26 10.435,24.785 L10,24.125 C11.035,23.645 11.77,22.97 12.22,22.115 C12.61,21.23 12.805,20.09 12.835,18.695 L12.835,13.85 Z M14.11,21.59 L13.615,22.07 C14.485,22.97 15.175,23.81 15.7,24.62 L16.24,24.08 C15.67,23.24 14.95,22.415 14.11,21.59 Z M16.45,12.65 L16.45,13.43 L23.365,13.43 L23.365,12.65 L20.41,12.65 C20.2,12.035 19.99,11.48 19.78,11 L18.97,11.15 C19.21,11.6 19.42,12.095 19.615,12.65 L16.45,12.65 Z M16.225,16.745 L16.225,17.525 L23.71,17.525 L23.71,16.745 L21.64,16.745 C22.03,16.055 22.375,15.245 22.69,14.345 L21.91,14.075 C21.61,15.02 21.265,15.905 20.86,16.745 L19.105,16.745 C18.805,15.71 18.475,14.84 18.115,14.12 L17.365,14.405 C17.74,15.125 18.055,15.905 18.295,16.745 L16.225,16.745 Z M22.78,19.16 L22.78,24.695 L22.015,24.695 L22.015,23.825 L17.965,23.825 L17.965,24.695 L17.185,24.695 L17.185,19.16 L22.78,19.16 Z M17.965,23.045 L22.015,23.045 L22.015,19.925 L17.965,19.925 L17.965,23.045 Z" id="赔" fill="#FFFFFF"></path>
                    </g>
                </g>
            </g>
        </g>
    </g>
</svg>