<?xml version="1.0" encoding="UTF-8"?>
<svg width="40px" height="40px" viewBox="0 0 40 40" version="1.1" xmlns="http://www.w3.org/2000/svg" xmlns:xlink="http://www.w3.org/1999/xlink">
    <!-- Generator: Sketch 47.1 (45422) - http://www.bohemiancoding.com/sketch -->
    <title>免费备案</title>
    <desc>Created with Sketch.</desc>
    <defs></defs>
    <g id="Page-1" stroke="none" stroke-width="1" fill="none" fill-rule="evenodd">
        <g id="服务图标-copy" transform="translate(-556.000000, -158.000000)">
            <g id="Group-Copy" transform="translate(-225.000000, 128.000000)">
                <g id="优势" transform="translate(364.000000, 30.000000)"></g>
                <g id="Group-5" transform="translate(597.000000, 32.000000)" fill="#FFFFFF" opacity="0.7">
                    <g id="免费备案" transform="translate(188.000000, 0.000000)">
                        <path d="M32,9.38356367 C32,9.29667884 32,9.22841215 31.9936732,9.16635156 C31.9936732,9.1456647 31.9936732,8.63883641 31.9936732,7.64586669 L30.5828027,7.2486788 C23.9586709,5.36203636 19.008738,1.64460604 17.4903124,0.521309091 C17.3954108,0.434424255 17.3005092,0.359951527 17.1992808,0.297890909 L17.110706,0.242036364 C16.8196744,0.0806788 16.5096625,0 16.1933238,0 C15.8643316,0 15.5606465,0.0744727273 15.2759417,0.223418182 C15.2316542,0.242036364 15.1873668,0.273066655 15.1494062,0.297890909 C15.0481778,0.366157564 14.959603,0.428218182 14.8900085,0.502690909 C13.7701696,1.33430302 8.24056959,5.27515153 1.42663458,7.21764847 L0.0157640858,7.61483636 L0.0157640858,9.05464244 C0.0157640858,9.11670305 0.0157640858,9.20358789 0.00943729996,9.32150305 C-0.142405263,17.9106909 1.54051646,24.3525819 4.88105285,27.9769212 C9.81593614,33.3451637 14.6875517,35.4490182 15.320229,35.7096728 C15.5733,35.8648243 15.8643316,35.9517091 16.1680167,35.9517091 C16.465375,35.9517091 16.7627334,35.8710303 17.0221311,35.7158788 C17.6295013,35.4676364 22.5770382,33.3079273 27.4676341,27.9831273 C30.8144973,24.3525819 32.1518426,17.9417213 32,9.38356367 Z M26.5249449,27.1515152 C21.6027152,32.5011394 16.693139,34.4994909 16.4843555,34.5863758 L16.3768003,34.6484364 C16.3072058,34.6918788 16.2376113,34.7167031 16.1680168,34.7167031 C16.0984223,34.7167031 16.0351545,34.6980849 15.9782136,34.6608485 L15.8453513,34.5925818 C15.8326978,34.5863757 14.5610163,34.0898909 12.6186969,32.867297 C9.5628653,30.9372121 7.23461268,28.7030303 5.82374219,27.1639273 C2.69831608,23.7630061 0.848157437,17.6128 0.993673214,9.3773576 C1,9.23461822 1,9.12290913 1,9.05464244 L1,8.54574545 L1.49981512,8.40300607 C8.41497851,6.43568487 14.1750832,2.60033942 15.6935088,1.4708364 C15.7757568,1.39636367 15.8137175,1.36533338 15.8959655,1.31568487 C15.9971939,1.25983033 16.0920955,1.24121215 16.1996506,1.24121215 C16.2755719,1.24121215 16.3514932,1.25983033 16.4274145,1.29086062 L16.5096626,1.33430305 C16.5476232,1.35292124 16.5855838,1.38395153 16.6298713,1.42739396 C18.2115646,2.61275153 23.6040018,6.45430309 30.4875313,8.41541822 L30.9873464,8.5581576 L30.9873464,9.06705458 C30.9873464,9.10429095 30.9873464,9.14773338 30.9936732,9.19738185 C30.9936732,9.24703033 31,9.30288487 31,9.37115156 C31.139189,17.6252122 29.6566978,23.7568 26.5249449,27.1515152 Z" id="Shape" fill-rule="nonzero"></path>
                        <path d="M20.445,18.425 L20.445,24.845 L19.665,24.845 L19.665,24.125 L12.015,24.125 L12.015,24.845 L11.235,24.845 L11.235,18.425 L20.445,18.425 Z M12.015,23.405 L15.435,23.405 L15.435,21.62 L12.015,21.62 L12.015,23.405 Z M16.215,23.405 L19.665,23.405 L19.665,21.62 L16.215,21.62 L16.215,23.405 Z M12.015,20.93 L15.435,20.93 L15.435,19.145 L12.015,19.145 L12.015,20.93 Z M16.215,19.145 L16.215,20.93 L19.665,20.93 L19.665,19.145 L16.215,19.145 Z M13.965,11 L14.775,11.18 C14.535,11.57 14.265,11.945 13.98,12.305 L20.22,12.305 L20.22,12.935 C19.245,14.135 18.045,15.14 16.635,15.98 C18.315,16.73 20.325,17.255 22.635,17.555 L22.26,18.29 C19.755,17.915 17.625,17.285 15.87,16.4 C14.04,17.33 11.865,18.005 9.36,18.425 L9,17.72 C11.34,17.375 13.365,16.79 15.105,15.98 C14.085,15.395 13.2,14.72 12.465,13.94 C11.79,14.54 11.055,15.095 10.26,15.59 L9.735,14.96 C11.505,13.91 12.915,12.59 13.965,11 Z M12.96,13.46 C13.755,14.3 14.715,15.005 15.855,15.605 C17.175,14.885 18.285,14.03 19.215,13.04 L13.365,13.04 C13.215,13.19 13.08,13.325 12.96,13.46 Z" id="备"></path>
                    </g>
                </g>
            </g>
        </g>
    </g>
</svg>