<?xml version="1.0" encoding="UTF-8"?>
<svg width="40px" height="40px" viewBox="0 0 40 40" version="1.1" xmlns="http://www.w3.org/2000/svg" xmlns:xlink="http://www.w3.org/1999/xlink">
    <!-- Generator: Sketch 47.1 (45422) - http://www.bohemiancoding.com/sketch -->
    <title>7*24小时</title>
    <desc>Created with Sketch.</desc>
    <defs></defs>
    <g id="Page-1" stroke="none" stroke-width="1" fill="none" fill-rule="evenodd">
        <g id="服务图标-copy" transform="translate(-139.000000, -158.000000)">
            <g id="Group-Copy" transform="translate(-225.000000, 128.000000)">
                <g id="7*24小时" opacity="0.7" transform="translate(368.000000, 33.000000)">
                    <path d="M30.7541352,6.6 L28.7048032,0.722694342 L27.8646139,1.01372581 L29.8124674,6.6 L30.7541352,6.6 Z" id="Combined-Shape" fill="#FFFFFF" fill-rule="nonzero"></path>
                    <path d="M30.9575681,6.6 C30.5430108,6.0761396 30.0968678,5.57444914 29.6200678,5.09631707 C28.0267903,3.4985418 26.1712846,2.24405809 24.1050287,1.3676664 C21.9654503,0.460125238 19.6930988,0 17.3510195,0 C15.0089401,0 12.7365886,0.460171486 10.5970102,1.3676664 C8.53080038,2.24405804 6.67524861,3.4985418 5.08201715,5.09631707 C3.48878569,6.69409234 2.2377872,8.55483593 1.36381646,10.6268785 C0.45887607,12.7724968 0,15.051263 0,17.3999538 C0,19.7486446 0.458876115,22.027457 1.36381646,24.1730753 C2.23774108,26.2451179 3.48873958,28.1059077 5.08201715,29.7036367 C6.67529473,31.3013657 8.53080038,32.555942 10.5970563,33.4323336 C12.7365886,34.3398748 15.0058063,35 17.3478856,35 C19.6899649,35 21.9654964,34.3398747 24.1050748,33.4323336 C26.1713307,32.555942 28.0268364,31.301412 29.6201139,29.7036367 C30.7345141,28.5860906 31.6811621,27.3396022 32.4487208,25.9823344 C32.5114436,25.8714163 31.9323297,25.4765941 31.9323297,25.4765941 L31.6201934,25.2961773 C28.851951,30.358797 23.5193007,33.84 17.3968201,33.84 C8.42771575,33.84 1.16,26.3691043 1.16,17.4 C1.16,8.43089566 8.43089566,1.16 17.4,1.16 C22.222601,1.16 26.5542313,3.26209541 29.5286047,6.6 L30.9575681,6.6 Z" id="Combined-Shape" fill="#FFFFFF" fill-rule="nonzero"></path>
                    <path d="M17.5,9.5 L17.5,19.5" id="Line" stroke="#FFFFFF" stroke-linecap="square"></path>
                    <path d="M26.5,19.5 L17.5,19.5" id="Line" stroke="#FFFFFF" stroke-linecap="square"></path>
                </g>
                <g id="优势" transform="translate(364.000000, 30.000000)"></g>
            </g>
        </g>
    </g>
</svg>