<?xml version="1.0" encoding="UTF-8"?>
<svg width="40px" height="40px" viewBox="0 0 40 40" version="1.1" xmlns="http://www.w3.org/2000/svg" xmlns:xlink="http://www.w3.org/1999/xlink">
    <!-- Generator: Sketch 47.1 (45422) - http://www.bohemiancoding.com/sketch -->
    <title>无理由退订</title>
    <desc>Created with Sketch.</desc>
    <defs></defs>
    <g id="Page-1" stroke="none" stroke-width="1" fill="none" fill-rule="evenodd">
        <g id="服务图标-copy" transform="translate(-370.000000, -158.000000)">
            <g id="Group-Copy" transform="translate(-225.000000, 128.000000)">
                <g id="优势" transform="translate(364.000000, 30.000000)"></g>
                <g id="Group-5" transform="translate(597.000000, 32.000000)" opacity="0.7">
                    <g id="无理由退订" transform="translate(0.000000, 1.000000)">
                        <path d="M34,15.2195176 L34.5345284,15.2195176 C34.5172407,14.5548055 34.6246421,15.7045508 34.5345284,15.0531715 C34.3270016,13.5530818 33.9271028,12.0921584 33.3382685,10.6879525 C32.4642978,8.60400166 31.2133454,6.73251762 29.6200678,5.12560625 C28.0267903,3.51864836 26.1712846,2.25695497 24.1050287,1.37552656 C21.9654503,0.462769636 19.6930988,0 17.3510195,0 C15.0089401,0 12.7365886,0.462816149 10.5970102,1.37552656 C8.53080038,2.25695493 6.67524861,3.51864836 5.08201715,5.12560625 C3.48878569,6.73256414 2.2377872,8.60400166 1.36381646,10.6879525 C0.45887607,12.8459019 0,15.1377645 0,17.4999535 C0,19.8621426 0.458876115,22.1540516 1.36381646,24.312001 C2.23774108,26.3959519 3.48873958,28.2674359 5.08201715,29.8743473 C6.67529473,31.4812587 8.53080038,32.7430451 10.5970563,33.6244734 C12.7365886,34.5372304 15.0089862,35 17.3510655,35 C19.6931448,35 21.9654964,34.5372303 24.1050748,33.6244734 C26.1713307,32.7430451 28.0268364,31.4813052 29.6201139,29.8743473 C30.7345141,28.7503785 31.6811621,27.4967264 32.4487208,26.1316582 C32.5114436,26.0201026 31.9323297,25.6230113 31.9323297,25.6230113 L31.3325693,25.2743536 C29.5337019,28.552255 26.6346227,31.1343315 23.1414674,32.5099407 C21.3412498,33.3544035 19.4040293,33.8333333 17.4,33.8333333 C8.43089566,33.8333333 1.16,26.5206509 1.16,17.5 C1.16,8.47934909 8.43089566,1.16666667 17.4,1.16666667 C25.5996146,1.16666667 32.379911,7.27841472 33.4829667,15.2195176 C33.5864826,15.9647474 34,14.4456055 34,15.2195176 Z" id="Combined-Shape" fill="#FFFFFF" fill-rule="nonzero"></path>
                        <path d="M10.945,11 L10.375,11.54 C11.455,12.38 12.31,13.19 12.94,13.94 L13.51,13.37 C12.82,12.575 11.965,11.78 10.945,11 Z M19.45,24.095 C18.67,24.095 17.815,24.08 16.9,24.065 C15.97,24.035 15.22,23.945 14.665,23.78 C14.095,23.6 13.6,23.24 13.15,22.67 C12.94,22.4 12.76,22.28 12.595,22.28 C12.19,22.28 11.545,22.97 10.66,24.365 L10.045,23.825 C10.885,22.52 11.605,21.755 12.22,21.545 L12.22,16.745 L10,16.745 L10,15.965 L12.985,15.965 L12.985,21.59 C13.135,21.68 13.27,21.815 13.42,21.995 C13.78,22.445 14.17,22.775 14.59,22.985 C15.055,23.165 15.715,23.27 16.57,23.3 C17.29,23.315 18.22,23.33 19.33,23.33 L21.655,23.33 C22.435,23.3 23.035,23.285 23.455,23.27 L23.26,24.095 L19.45,24.095 Z M17.95,17.48 C18.82,17.99 19.63,18.515 20.38,19.055 C21.01,18.53 21.55,17.975 22.015,17.405 L22.615,17.87 C22.075,18.5 21.535,19.055 20.98,19.505 C21.76,20.105 22.48,20.735 23.14,21.38 L22.615,21.995 C21.28,20.585 19.57,19.265 17.5,18.05 L17.95,17.48 Z M15.97,14.375 L15.97,15.935 L21.295,15.935 L21.295,14.375 L15.97,14.375 Z M21.295,13.67 L21.295,12.125 L15.97,12.125 L15.97,13.67 L21.295,13.67 Z M15.97,16.67 L15.97,21.11 C17.05,20.93 18.1,20.675 19.15,20.375 L19.33,21.125 C18.19,21.44 16.75,21.74 15.01,22.025 L14.83,21.35 C15.055,21.26 15.175,21.14 15.175,20.975 L15.175,11.39 L22.09,11.39 L22.09,16.67 L15.97,16.67 Z" id="退" fill="#FFFFFF"></path>
                        <circle id="Oval-2" stroke="#FFFFFF" cx="34.201797" cy="17.4" r="2.4"></circle>
                    </g>
                </g>
            </g>
        </g>
    </g>
</svg>