<?xml version="1.0" encoding="UTF-8"?>
<svg width="40px" height="40px" viewBox="0 0 40 40" version="1.1" xmlns="http://www.w3.org/2000/svg" xmlns:xlink="http://www.w3.org/1999/xlink">
    <!-- Generator: Sketch 47.1 (45422) - http://www.bohemiancoding.com/sketch -->
    <title>VIP</title>
    <desc>Created with Sketch.</desc>
    <defs></defs>
    <g id="Page-1" stroke="none" stroke-width="1" fill="none" fill-rule="evenodd">
        <g id="服务图标-copy" transform="translate(-1142.000000, -158.000000)">
            <g id="Group-Copy" transform="translate(-225.000000, 128.000000)">
                <g id="VIP" opacity="0.7" transform="translate(1369.000000, 36.000000)" stroke="#FFFFFF">
                    <path d="M24.5,14.5 L18,6 C17.9291456,5.92204062 15.7624789,8.75537395 11.5,14.5 L4,11.9120577 C3.8717601,11.8833043 4.70509344,15.4126184 6.5,22.5 C6.49574815,22.8088424 6.49574815,24.8088424 6.5,28.5 L29.5,28.5 L29.5,22.5 L32.5,11.9120577 C32.5312467,11.7874597 29.86458,12.6501071 24.5,14.5 Z" id="Path"></path>
                    <path d="M6.5,22.5 L29.5,22.5" id="Line-6" stroke-linecap="square"></path>
                    <path d="M5.00004975,9.00016583 C5.00004975,10.3790616 3.87904796,11.4999585 2.5,11.5 C1.12109427,11.5 4.97513252e-05,10.3790347 4.97513252e-05,9.00016583 C4.97513252e-05,7.62107547 1.12105044,6.5 2.5,6.5 C3.87907582,6.5 5.00004975,7.62103588 5.00004975,9.00016583 Z" id="Path"></path>
                    <path d="M18,5.5 C16.3454782,5.5 15.0002612,4.15469637 15.0003109,2.50020729 C15.0003109,0.84537483 16.3454452,-0.5 18,-0.5 C19.6550612,-0.5 21.0003109,0.845259325 21.0003109,2.50020729 C21.0003109,4.15481766 19.6549841,5.5 18,5.5 Z" id="Path"></path>
                    <path d="M34,6.5 C35.3788763,6.5 36.4997513,7.62107539 36.4997513,9.00016583 C36.4997513,10.3790348 35.3788325,11.5 34,11.5 C32.6207663,11.5 31.4997513,10.379131 31.4997513,9.00016583 C31.4997513,7.62096898 32.6206994,6.5 34,6.5 Z" id="Path"></path>
                </g>
                <g id="优势" transform="translate(364.000000, 30.000000)"></g>
            </g>
        </g>
    </g>
</svg>